<svg width="321" height="119" viewBox="0 0 321 119" fill="none" xmlns="http://www.w3.org/2000/svg">
<path d="M43.392 29.92C42.944 26.528 42.016 23.584 40.608 21.088C39.2 18.528 37.312 16.576 34.944 15.232C32.64 13.824 29.856 13.12 26.592 13.12C23.456 13.12 20.832 14.016 18.72 15.808C16.672 17.6 15.648 19.808 15.648 22.432C15.648 24.608 16.256 26.496 17.472 28.096C18.752 29.696 20.576 31.168 22.944 32.512C25.312 33.792 28.128 35.136 31.392 36.544C33.824 37.568 36.288 38.72 38.784 40C41.28 41.216 43.584 42.688 45.696 44.416C47.808 46.144 49.504 48.16 50.784 50.464C52.128 52.704 52.8 55.392 52.8 58.528C52.8 62.24 51.808 65.536 49.824 68.416C47.904 71.296 45.152 73.536 41.568 75.136C37.984 76.736 33.76 77.536 28.896 77.536C26.208 77.536 23.36 77.12 20.352 76.288C17.344 75.52 14.592 74.336 12.096 72.736L12.384 76.864H5.856L5.664 55.072H11.136C11.84 60.512 13.856 64.64 17.184 67.456C20.512 70.208 24.512 71.584 29.184 71.584C31.552 71.584 33.664 71.168 35.52 70.336C37.376 69.44 38.816 68.256 39.84 66.784C40.928 65.248 41.472 63.52 41.472 61.6C41.472 59.104 40.704 57.056 39.168 55.456C37.632 53.856 35.68 52.48 33.312 51.328C30.944 50.176 28.48 49.056 25.92 47.968C23.04 46.752 20.32 45.472 17.76 44.128C15.2 42.72 12.928 41.152 10.944 39.424C9.024 37.632 7.488 35.584 6.336 33.28C5.248 30.976 4.704 28.256 4.704 25.12C4.704 23.264 5.056 21.312 5.76 19.264C6.464 17.152 7.616 15.2 9.216 13.408C10.88 11.616 13.088 10.144 15.84 8.992C18.592 7.84 22.016 7.264 26.112 7.264C28.672 7.264 31.456 7.648 34.464 8.41599C37.536 9.12 40.224 10.304 42.528 11.968L42.144 7.936H48.768V29.92H43.392ZM113.462 77.536C107.382 77.536 102.198 76.512 97.9095 74.464C93.6215 72.416 90.1335 69.696 87.4455 66.304C84.8215 62.848 82.9015 59.04 81.6855 54.88C80.4695 50.72 79.8615 46.56 79.8615 42.4C79.8615 38.368 80.5335 34.304 81.8775 30.208C83.2215 26.048 85.2695 22.24 88.0215 18.784C90.8375 15.328 94.3575 12.544 98.5815 10.432C102.806 8.32 107.766 7.264 113.462 7.264C119.286 7.264 124.31 8.32 128.534 10.432C132.822 12.544 136.31 15.36 138.998 18.88C141.75 22.336 143.766 26.112 145.046 30.208C146.39 34.304 147.062 38.368 147.062 42.4C147.062 46.368 146.39 50.4 145.046 54.496C143.702 58.592 141.622 62.4 138.806 65.92C136.054 69.376 132.566 72.192 128.342 74.368C124.118 76.48 119.158 77.536 113.462 77.536ZM114.23 71.584C117.814 71.584 120.822 70.752 123.254 69.088C125.75 67.424 127.766 65.248 129.302 62.56C130.838 59.872 131.958 56.928 132.662 53.728C133.43 50.464 133.814 47.264 133.814 44.128C133.814 39.84 133.366 35.84 132.47 32.128C131.574 28.352 130.23 25.056 128.438 22.24C126.71 19.424 124.502 17.216 121.814 15.616C119.126 13.952 116.022 13.152 112.502 13.216C108.982 13.28 105.974 14.176 103.478 15.904C101.046 17.568 99.0295 19.776 97.4295 22.528C95.8935 25.216 94.7735 28.192 94.0695 31.456C93.3655 34.72 93.0135 37.92 93.0135 41.056C93.0135 44.256 93.3975 47.616 94.1655 51.136C94.9335 54.656 96.1495 57.984 97.8135 61.12C99.4775 64.256 101.654 66.784 104.342 68.704C107.094 70.624 110.39 71.584 114.23 71.584ZM174.383 76V70.72C176.175 70.656 177.551 70.368 178.511 69.856C179.471 69.28 180.143 68.32 180.527 66.976C180.911 65.568 181.103 63.648 181.103 61.216V22.912C181.103 21.312 181.135 19.776 181.199 18.304C181.327 16.832 181.423 15.68 181.487 14.848C180.399 14.912 179.151 14.976 177.743 15.04C176.335 15.04 175.215 15.072 174.383 15.136V8.8H199.919V14.08C198.191 14.144 196.815 14.464 195.791 15.04C194.831 15.552 194.159 16.48 193.775 17.824C193.391 19.168 193.199 21.088 193.199 23.584V61.792C193.199 63.52 193.167 65.12 193.103 66.592C193.039 68 192.943 69.12 192.815 69.952L207.407 69.856C211.247 69.792 214.223 68.48 216.335 65.92C218.447 63.36 219.503 59.392 219.503 54.016H224.879L224.303 76H174.383ZM282.947 77.536C276.867 77.536 271.683 76.512 267.395 74.464C263.107 72.416 259.619 69.696 256.931 66.304C254.307 62.848 252.387 59.04 251.171 54.88C249.955 50.72 249.347 46.56 249.347 42.4C249.347 38.368 250.019 34.304 251.363 30.208C252.707 26.048 254.755 22.24 257.507 18.784C260.323 15.328 263.843 12.544 268.067 10.432C272.291 8.32 277.251 7.264 282.947 7.264C288.771 7.264 293.795 8.32 298.019 10.432C302.307 12.544 305.795 15.36 308.483 18.88C311.235 22.336 313.251 26.112 314.531 30.208C315.875 34.304 316.547 38.368 316.547 42.4C316.547 46.368 315.875 50.4 314.531 54.496C313.187 58.592 311.107 62.4 308.291 65.92C305.539 69.376 302.051 72.192 297.827 74.368C293.603 76.48 288.643 77.536 282.947 77.536ZM283.715 71.584C287.299 71.584 290.307 70.752 292.739 69.088C295.235 67.424 297.251 65.248 298.787 62.56C300.323 59.872 301.443 56.928 302.147 53.728C302.915 50.464 303.299 47.264 303.299 44.128C303.299 39.84 302.851 35.84 301.955 32.128C301.059 28.352 299.715 25.056 297.923 22.24C296.195 19.424 293.987 17.216 291.299 15.616C288.611 13.952 285.507 13.152 281.987 13.216C278.467 13.28 275.459 14.176 272.963 15.904C270.531 17.568 268.515 19.776 266.915 22.528C265.379 25.216 264.259 28.192 263.555 31.456C262.851 34.72 262.499 37.92 262.499 41.056C262.499 44.256 262.883 47.616 263.651 51.136C264.419 54.656 265.635 57.984 267.299 61.12C268.963 64.256 271.139 66.784 273.827 68.704C276.579 70.624 279.875 71.584 283.715 71.584Z" fill="black"/>
<path d="M6.528 96.656L4.296 96.368V95.168H11.352V96.368L9.12 96.656V111.584L11.352 111.848V113H4.32V111.824L6.528 111.584V96.656ZM47.2397 96.44L43.1117 96.584L42.2717 101.6H40.6877L41.0957 95.168H56.0477L56.3357 101.6H54.8237L54.0317 96.584L49.8797 96.44V111.584L53.2877 111.824V113H44.1197V111.824L47.2397 111.584V96.44ZM91.4569 95.024H94.0969L99.9289 111.584L101.417 111.824V113H95.0809V111.824L97.0729 111.584L95.9449 108.032H88.9369L87.8089 111.584L89.8729 111.824V113H84.1849V111.824L85.6729 111.584L91.4569 95.024ZM92.9689 98.864L92.3689 96.752L91.7929 98.912L89.3689 106.616H95.4889L92.9689 98.864ZM131.858 96.656L129.914 96.368V95.168H136.802V96.368L134.426 96.656V111.584L140.618 111.368L142.034 107.336L143.498 107.552L142.658 113H129.866V111.824L131.858 111.584V96.656ZM175.053 96.656L172.821 96.368V95.168H179.877V96.368L177.645 96.656V111.584L179.877 111.848V113H172.845V111.824L175.053 111.584V96.656ZM215.765 95.024H218.405L224.237 111.584L225.725 111.824V113H219.389V111.824L221.381 111.584L220.253 108.032H213.245L212.117 111.584L214.181 111.824V113H208.493V111.824L209.981 111.584L215.765 95.024ZM217.277 98.864L216.677 96.752L216.101 98.912L213.677 106.616H219.797L217.277 98.864ZM256.142 96.656L254.222 96.368V95.168H258.686L266.678 106.88L268.022 109.424V96.656L265.934 96.368V95.168H271.598V96.368L269.678 96.656V113H267.782L259.622 101.024L257.774 97.856V111.584L260.054 111.824V113H254.222V111.824L256.142 111.56V96.656ZM308.17 113.264C306.538 113.264 305.154 112.888 304.018 112.136C302.898 111.384 302.05 110.328 301.474 108.968C300.898 107.592 300.61 106 300.61 104.192C300.61 102.352 300.954 100.736 301.642 99.344C302.346 97.952 303.306 96.88 304.522 96.128C305.738 95.36 307.106 94.976 308.626 94.976C311.122 94.976 313.026 95.768 314.338 97.352C315.666 98.92 316.33 101.096 316.33 103.88C316.33 105.752 315.97 107.4 315.25 108.824C314.546 110.232 313.57 111.328 312.322 112.112C311.09 112.88 309.706 113.264 308.17 113.264ZM308.482 96.224C306.93 96.224 305.706 96.904 304.81 98.264C303.914 99.608 303.466 101.584 303.466 104.192C303.466 106.592 303.898 108.496 304.762 109.904C305.642 111.296 306.866 111.992 308.434 111.992C309.97 111.992 311.186 111.296 312.082 109.904C312.994 108.512 313.45 106.512 313.45 103.904C313.45 101.488 313.018 99.608 312.154 98.264C311.29 96.904 310.066 96.224 308.482 96.224Z" fill="black"/>
</svg>
