<?xml version="1.0" encoding="UTF-8" standalone="no"?>
<!-- Created with Inkscape (http://www.inkscape.org/) -->

<svg
   width="199.50963mm"
   height="351.11313mm"
   viewBox="0 0 199.50963 351.11313"
   version="1.1"
   id="svg5"
   xml:space="preserve"
   xmlns:inkscape="http://www.inkscape.org/namespaces/inkscape"
   xmlns:sodipodi="http://sodipodi.sourceforge.net/DTD/sodipodi-0.dtd"
   xmlns:xlink="http://www.w3.org/1999/xlink"
   xmlns="http://www.w3.org/2000/svg"
   xmlns:svg="http://www.w3.org/2000/svg"><sodipodi:namedview
     id="namedview7"
     pagecolor="#505050"
     bordercolor="#eeeeee"
     borderopacity="1"
     inkscape:showpageshadow="0"
     inkscape:pageopacity="0"
     inkscape:pagecheckerboard="0"
     inkscape:deskcolor="#505050"
     inkscape:document-units="mm"
     showgrid="false"
     inkscape:zoom="0.24441213"
     inkscape:cx="736.46098"
     inkscape:cy="298.67584"
     inkscape:window-width="1920"
     inkscape:window-height="974"
     inkscape:window-x="-11"
     inkscape:window-y="-11"
     inkscape:window-maximized="1"
     inkscape:current-layer="svg5" /><defs
     id="defs2"><pattern
       inkscape:collect="always"
       xlink:href="#pattern-0"
       id="pattern12001"
       patternTransform="matrix(-0.0871467,0.3400813,0.34008133,0.08714669,-499.50857,364.07725)" /><pattern
       id="pattern-0"
       patternUnits="userSpaceOnUse"
       x="0"
       y="0"
       width="123"
       height="123"
       viewBox="0 0 123 123"
       patternTransform="matrix(-0.24703, 0.96401, 0.96401, 0.24703, -61.46875, 1116.74875)"><g
         id="use4822"
         clip-path="url(#clip-26)"><path
           fill-rule="nonzero"
           fill="#b30c47"
           fill-opacity="1"
           d="m 14.484375,61.984375 c 0,26.070313 21.132813,47.207035 47.203125,47.207035 26.074219,0 47.20703,-21.136722 47.20703,-47.207035 0,-26.070312 -21.132811,-47.207031 -47.20703,-47.207031 -26.070312,0 -47.203125,21.136719 -47.203125,47.207031"
           id="path11854" /><path
           fill-rule="nonzero"
           fill="#f05a32"
           fill-opacity="1"
           d="m 20.332031,61.984375 c 0,22.839844 18.515625,41.355465 41.355469,41.355465 22.839844,0 41.35547,-18.515621 41.35547,-41.355465 0,-22.839844 -18.515626,-41.355469 -41.35547,-41.355469 -22.839844,0 -41.355469,18.515625 -41.355469,41.355469"
           id="path11856" /><path
           fill-rule="nonzero"
           fill="#1e1323"
           fill-opacity="1"
           d="m 68.226563,59.726563 0.04687,4.363281 21.921875,-0.234375 c 1.183593,-0.01172 2.140625,0.992187 2.035156,2.199219 -0.08594,1.050781 -1.023438,1.832031 -2.078125,1.84375 l -7.515625,0.08203 c 0.01563,1.59375 -0.605469,3.132812 -1.726563,4.265625 L 86.3125,77.59375 c 0.839844,0.832031 0.800781,2.21875 -0.128906,2.996094 -0.8125,0.675781 -2.023438,0.5625 -2.773438,-0.183594 L 67.886719,65.050781 64.816406,68.152344 80.402344,83.570313 c 0.839844,0.832031 0.796875,2.21875 -0.132813,2.992187 -0.808593,0.679688 -2.023437,0.5625 -2.773437,-0.179687 l -5.34375,-5.285157 C 71.03125,82.230469 69.5,82.871094 67.90625,82.871094 v 7.601562 c 0,1.183594 -1.015625,2.128907 -2.222656,2.011719 -1.050781,-0.09766 -1.824219,-1.042969 -1.824219,-2.097656 V 68.550781 H 59.5 v 21.921875 c 0,1.183594 -1.015625,2.128907 -2.222656,2.011719 -1.050781,-0.09766 -1.824219,-1.042969 -1.824219,-2.097656 v -7.515625 c -1.269531,0 -2.488281,-0.480469 -3.421875,-1.34375 l -5.171875,5.574219 c -0.800781,0.863281 -2.1875,0.867187 -2.996094,-0.03516 -0.699218,-0.789062 -0.625,-2.007812 0.09375,-2.78125 L 58.808594,68.277344 55.613281,65.3125 40.699219,81.382813 C 39.894531,82.25 38.507813,82.25 37.703125,81.347656 37,80.558594 37.074219,79.34375 37.792969,78.566406 L 42.90625,73.058594 C 41.738281,71.972656 41.050781,70.464844 41,68.871094 v -0.0039 l -7.601562,0.246093 c -1.179688,0.03906 -2.15625,-0.945312 -2.082032,-2.15625 0.06641,-1.050781 0.984375,-1.855468 2.039063,-1.886718 L 55.183594,64.3711 55.042969,60.007819 33.128906,60.710944 c -1.179687,0.03906 -2.15625,-0.945313 -2.082031,-2.15625 0.06641,-1.050782 0.984375,-1.855469 2.039063,-1.886719 l 7.515625,-0.242188 C 40.546875,54.832031 41.136719,53.28125 42.234375,52.125 L 36.71875,46.890625 c -0.859375,-0.8125 -0.847656,-2.199219 0.06641,-2.992187 0.796875,-0.695313 2.011719,-0.605469 2.777344,0.121093 l 15.847656,15.023438 3,-3.167969 L 42.5,40.792969 c -0.855469,-0.816406 -0.84375,-2.199219 0.07031,-2.996094 0.792968,-0.695312 2.011718,-0.605469 2.777343,0.121094 l 5.453125,5.171875 c 1.097657,-1.160156 2.613282,-1.832031 4.210938,-1.863281 L 54.847656,33.625 c -0.02344,-1.183594 0.96875,-2.148437 2.175782,-2.0625 1.054687,0.07813 1.847656,1.007813 1.867187,2.0625 l 0.46875,21.832031 4.359375,-0.09375 -0.464844,-21.917968 c -0.02734,-1.183594 0.96875,-2.148438 2.175782,-2.058594 1.050781,0.07422 1.84375,1.003906 1.867187,2.058594 l 0.160156,7.515625 c 1.597657,-0.03516 3.136719,0.570312 4.285157,1.679687 l 5.289062,-5.460937 c 0.824219,-0.847657 2.207031,-0.824219 2.996094,0.09766 0.683594,0.804687 0.582031,2.019531 -0.152344,2.777344 l -15.191406,15.6875 3.132812,3.035156 15.253907,-15.75 c 0.820312,-0.847656 2.210937,-0.820313 2.996093,0.101562 0.683594,0.800782 0.582032,2.015625 -0.152343,2.773438 l -5.230469,5.398437 h 0.0039 c 1.144531,1.113282 1.800781,2.632813 1.816406,4.230469 l 7.515625,-0.08203 c 1.054688,-0.0078 2.007813,0.753906 2.117188,1.800781 0.128906,1.207031 -0.804688,2.230469 -1.988281,2.242188 z M 101.53906,61 C 98.28125,58.640625 97.125,49.300781 93.894531,49.335938 c -1.140625,0.01172 -1.773437,1.183593 -2.105468,2.800781 l -7.402344,0.08203 5.152344,-5.320312 c 1.398437,0.871093 2.6875,1.21875 3.480468,0.398437 2.246094,-2.320312 -3.734375,-9.582031 -3.207031,-13.570312 0.05859,-0.453125 -0.34375,-0.84375 -0.796875,-0.769532 -3.96875,0.65625 -11.417969,-5.09375 -13.667969,-2.769531 -0.792968,0.816406 -0.402343,2.09375 0.515625,3.464844 l -5.152343,5.320312 -0.160157,-7.40625 C 72.15625,31.1875 73.308594,30.515625 73.285156,29.375 73.214844,26.144531 63.84375,25.289063 61.382813,22.109375 61.101563,21.75 60.539063,21.761719 60.277344,22.132813 57.949219,25.417969 48.625,26.667969 48.691406,29.902344 c 0.02734,1.140625 1.207032,1.757812 2.828125,2.070312 l 0.15625,7.40625 -5.375,-5.09375 c 0.859375,-1.410156 1.191407,-2.703125 0.363282,-3.488281 -2.34375,-2.222656 -9.542969,3.839844 -13.535157,3.351563 -0.453125,-0.05469 -0.839843,0.355468 -0.761718,0.804687 0.699218,3.960938 -4.96875,11.472656 -2.625,13.695313 0.828125,0.785156 2.097656,0.382812 3.460937,-0.546875 l 5.375,5.09375 -7.402344,0.238281 c -0.398437,-1.601563 -1.082031,-2.75 -2.222656,-2.710938 -3.226562,0.101563 -3.984375,9.480469 -7.136719,11.980469 -0.359375,0.28125 -0.339843,0.847656 0.03516,1.105469 3.308593,2.289062 4.660156,11.601562 7.890625,11.5 1.140625,-0.03906 1.746093,-1.226563 2.042968,-2.847656 l 7.402344,-0.238282 -5.039062,5.429688 c -1.417969,-0.84375 -2.710938,-1.164063 -3.488282,-0.328125 -2.195312,2.371094 3.941407,9.503906 3.496094,13.5 -0.05078,0.453125 0.363281,0.839844 0.8125,0.753906 3.953125,-0.738281 11.523438,4.847656 13.722656,2.476563 0.777344,-0.835938 0.359375,-2.101563 -0.585937,-3.453125 l 4.054687,-4.371094 v 5.960937 c -1.613281,0.347657 -2.78125,0.996094 -2.78125,2.136719 0,3.230469 9.351563,4.285156 11.746094,7.515625 0.273438,0.36719 0.835938,0.36719 1.109375,0 2.394531,-3.230469 11.746094,-4.285156 11.746094,-7.515625 0,-1.140625 -1.167969,-1.789062 -2.78125,-2.136719 v -7.402343 l 5.265625,5.207031 c -0.886719,1.390625 -1.25,2.675781 -0.441406,3.476562 2.296875,2.273438 9.625,-3.632812 13.605468,-3.0625 0.453125,0.06641 0.847657,-0.335937 0.78125,-0.785156 -0.613281,-3.976562 5.210938,-11.363281 2.914063,-13.636719 -0.808594,-0.804687 -2.089844,-0.429687 -3.472656,0.472657 l -5.261719,-5.207032 7.402344,-0.07813 c 0.367187,1.609375 1.023437,2.769532 2.164062,2.753907 3.230469,-0.03125 4.1875,-9.394532 7.394527,-11.824219 0.36328,-0.273438 0.35547,-0.839844 -0.0117,-1.105469"
           id="path11858" /><path
           fill-rule="nonzero"
           fill="#f7bd44"
           fill-opacity="1"
           d="m 56.839844,73.863281 -2.601563,3.496094 c -0.496093,0.664063 -0.296875,1.625 0.4375,2.011719 0.02344,0.01172 0.04687,0.02344 0.07031,0.03516 0.0078,0 0.01563,0.0039 0.01953,0.0078 0.8125,0.390625 1.765625,-0.15625 1.898438,-1.046875 0.214843,-1.433594 0.429687,-2.871094 0.644531,-4.308594 0.04297,-0.269531 -0.304688,-0.414063 -0.46875,-0.195313"
           id="path11860" /><path
           fill-rule="nonzero"
           fill="#f7bd44"
           fill-opacity="1"
           d="m 66.433594,73.90625 0.550781,4.320313 c 0.105469,0.824218 0.914063,1.378906 1.710938,1.144531 0.02344,-0.0078 0.04687,-0.01172 0.07422,-0.01953 0.0078,-0.0039 0.01563,-0.0078 0.02344,-0.0078 0.851562,-0.28125 1.160156,-1.339844 0.640625,-2.070312 C 68.59375,76.089844 67.75,74.902344 66.910156,73.71875 66.75,73.496094 66.398438,73.632813 66.433594,73.90625"
           id="path11862" /><path
           fill-rule="nonzero"
           fill="#f7bd44"
           fill-opacity="1"
           d="m 73.652344,66.628906 3.539062,2.539063 c 0.671875,0.484375 1.628907,0.269531 2.003907,-0.472656 0.0078,-0.02344 0.01953,-0.04687 0.03125,-0.07031 0.0039,-0.0078 0.0078,-0.01563 0.01172,-0.02344 0.375,-0.816407 -0.1875,-1.757813 -1.078125,-1.878907 -1.441406,-0.1875 -2.882812,-0.378906 -4.320312,-0.570312 -0.273438,-0.03516 -0.410156,0.316406 -0.1875,0.476562"
           id="path11864" /><path
           fill-rule="nonzero"
           fill="#f7bd44"
           fill-opacity="1"
           d="m 73.636719,57.300781 4.324219,-0.527343 c 0.820312,-0.101563 1.378906,-0.910157 1.152343,-1.707032 -0.0078,-0.02344 -0.01172,-0.04687 -0.01953,-0.07422 -0.0039,-0.0078 -0.0078,-0.01563 -0.01172,-0.02344 -0.273437,-0.855469 -1.328125,-1.167969 -2.0625,-0.652344 -1.191406,0.835938 -2.378906,1.671875 -3.566406,2.507813 -0.226562,0.15625 -0.08984,0.507812 0.183594,0.476562"
           id="path11866" /><path
           fill-rule="nonzero"
           fill="#f7bd44"
           fill-opacity="1"
           d="m 66.710938,50.175781 2.648437,-3.457031 c 0.503906,-0.660156 0.320313,-1.625 -0.40625,-2.019531 -0.02344,-0.01172 -0.04687,-0.02344 -0.07031,-0.03516 -0.0078,-0.0039 -0.01563,-0.0078 -0.02344,-0.01172 -0.804687,-0.402344 -1.765625,0.132812 -1.910156,1.019531 -0.238281,1.433594 -0.472656,2.867188 -0.707031,4.300781 -0.04687,0.269532 0.300781,0.417969 0.46875,0.203125"
           id="path11868" /><path
           fill-rule="nonzero"
           fill="#f7bd44"
           fill-opacity="1"
           d="m 56.421875,50.28125 -0.738281,-4.292969 c -0.140625,-0.816406 -0.972656,-1.335937 -1.757813,-1.070312 -0.02344,0.0078 -0.05078,0.01953 -0.07422,0.02734 -0.0078,0.0039 -0.01563,0.0039 -0.02344,0.0078 -0.839844,0.320313 -1.101562,1.386719 -0.550781,2.097656 0.894531,1.144532 1.785156,2.289063 2.679687,3.4375 0.167969,0.214844 0.511719,0.0625 0.464844,-0.207031"
           id="path11870" /><path
           fill-rule="nonzero"
           fill="#f7bd44"
           fill-opacity="1"
           d="M 49.78125,57.203125 46.269531,54.625 c -0.667968,-0.492187 -1.628906,-0.285156 -2.007812,0.449219 -0.01172,0.02344 -0.02344,0.04687 -0.03516,0.07031 -0.0039,0.0078 -0.0078,0.01563 -0.01172,0.02344 -0.382813,0.8125 0.167969,1.761719 1.058594,1.890625 1.4375,0.207031 2.875,0.414062 4.3125,0.617187 C 49.859375,57.714844 50,57.367188 49.78125,57.203125"
           id="path11872" /><path
           fill-rule="nonzero"
           fill="#f7bd44"
           fill-opacity="1"
           d="M 49.796875,66.800781 45.476563,67.375 c -0.820313,0.109375 -1.371094,0.925781 -1.132813,1.71875 0.0039,0.02344 0.01172,0.05078 0.01953,0.07422 0.0039,0.0078 0.0078,0.01563 0.01172,0.02344 0.285156,0.851563 1.34375,1.152344 2.070313,0.628907 1.179687,-0.847657 2.359375,-1.695313 3.539062,-2.546875 0.222656,-0.160157 0.08203,-0.507813 -0.1875,-0.472657"
           id="path11874" /><path
           fill-rule="nonzero"
           fill="#1e1323"
           fill-opacity="1"
           d="m 57.046875,61.984375 c 0,2.5625 2.078125,4.640625 4.640625,4.640625 2.566406,0 4.644531,-2.078125 4.644531,-4.640625 0,-2.566406 -2.078125,-4.644531 -4.644531,-4.644531 -2.5625,0 -4.640625,2.078125 -4.640625,4.644531"
           id="path11876" /><path
           fill-rule="nonzero"
           fill="#b30c47"
           fill-opacity="1"
           d="m 59.65625,108.98438 v -2.69532 h 4.0625 v 2.69532 c 0,5.39062 4.328125,2.02343 4.328125,5.61718 0,2.96485 -4.328125,2.26172 -5.84375,4.57422 -0.25,0.37891 -0.78125,0.37891 -1.03125,0 -1.511719,-2.3125 -5.84375,-1.60937 -5.84375,-4.57422 0,-3.59375 4.328125,-0.22656 4.328125,-5.61718"
           id="path11878" /><path
           fill-rule="nonzero"
           fill="#b30c47"
           fill-opacity="1"
           d="m 63.894531,14.914063 0.08594,2.691406 -4.0625,0.128906 -0.08594,-2.695312 c -0.167968,-5.386719 -4.386718,-1.882813 -4.5,-5.476563 -0.09375,-2.964844 4.257813,-2.394531 5.699219,-4.753906 0.238281,-0.390625 0.769531,-0.40625 1.03125,-0.03125 1.582031,2.261719 5.890625,1.421875 5.984375,4.386719 0.109375,3.59375 -4.320312,0.359375 -4.152344,5.75"
           id="path11880" /><path
           fill-rule="nonzero"
           fill="#b30c47"
           fill-opacity="1"
           d="m 108.69141,64.015625 h -2.69532 v -4.0625 h 2.69532 c 5.39062,0 2.01953,-4.328125 5.61328,-4.328125 2.96875,0 2.26172,4.328125 4.57422,5.84375 0.38281,0.25 0.38281,0.78125 0,1.03125 -2.3125,1.511719 -1.60547,5.84375 -4.57422,5.84375 -3.59375,0 -0.22266,-4.328125 -5.61328,-4.328125"
           id="path11882" /><path
           fill-rule="nonzero"
           fill="#b30c47"
           fill-opacity="1"
           d="m 14.617188,59.777344 2.695312,-0.08594 0.125,4.0625 -2.691406,0.08594 c -5.390625,0.167969 -1.886719,4.386719 -5.476563,4.5 C 6.304688,68.433594 6.871094,64.082031 4.511719,62.640625 4.125,62.40625 4.109375,61.871094 4.480469,61.609375 6.746094,60.027344 5.90625,55.71875 8.871094,55.625 c 3.589844,-0.109375 0.359375,4.320313 5.746094,4.152344"
           id="path11884" /><path
           fill-rule="nonzero"
           fill="#b30c47"
           fill-opacity="1"
           d="m 93.488281,96.65625 -1.90625,-1.90625 2.875,-2.875 1.902344,1.90625 c 3.812505,3.8125 4.492185,-1.628906 7.035155,0.910156 2.09375,2.097657 -1.46484,4.660157 -0.90234,7.367184 0.0937,0.44532 -0.28125,0.82422 -0.72656,0.73047 -2.707036,-0.5664 -5.269536,2.9961 -7.367192,0.89844 -2.542969,-2.54297 2.902343,-3.21875 -0.910157,-7.03125"
           id="path11886" /><path
           fill-rule="nonzero"
           fill="#b30c47"
           fill-opacity="1"
           d="m 29.964844,27.140625 1.964844,1.84375 -2.785157,2.960938 -1.960937,-1.84375 c -3.929688,-3.691407 -4.4375,1.769531 -7.058594,-0.691407 -2.160156,-2.03125 1.316406,-4.703125 0.667969,-7.390625 -0.105469,-0.441406 0.257812,-0.832031 0.707031,-0.75 2.722656,0.480469 5.171875,-3.160156 7.335938,-1.128906 2.617187,2.460938 -2.800782,3.308594 1.128906,7"
           id="path11888" /><path
           fill-rule="nonzero"
           fill="#b30c47"
           fill-opacity="1"
           d="m 96.359375,30.183594 -1.902344,1.90625 -2.875,-2.875 1.90625,-1.902344 c 3.8125,-3.8125 -1.632812,-4.492187 0.910157,-7.03125 2.097656,-2.097656 4.660156,1.460938 7.367192,0.898438 0.44531,-0.09375 0.82031,0.28125 0.72656,0.726562 -0.5625,2.707031 2.99609,5.269531 0.90234,7.367188 -2.54297,2.542968 -3.22265,-2.902344 -7.035155,0.910156"
           id="path11890" /><path
           fill-rule="nonzero"
           fill="#b30c47"
           fill-opacity="1"
           d="m 26.84375,93.707031 1.847656,-1.964843 2.960938,2.785156 -1.84375,1.960937 c -3.691406,3.929689 1.769531,4.437499 -0.691406,7.058599 -2.03125,2.16015 -4.703125,-1.31641 -7.390625,-0.66797 -0.445313,0.10547 -0.832032,-0.25782 -0.753907,-0.70703 C 21.453125,99.449219 17.816406,97 19.84375,94.835938 c 2.460938,-2.617188 3.308594,2.800781 7,-1.128907"
           id="path11892" /><g
           clip-path="url(#clip-2)"
           id="g11896"><path
             fill-rule="nonzero"
             fill="#1e1323"
             fill-opacity="1"
             d="m 122.86328,1.195313 c -1.90234,0 -3.64062,0.960937 -4.64844,2.574218 -1.6289,2.609375 -3.57812,7.328125 -3.61718,15.003907 -0.0195,4.394531 3.30859,8.113281 7.57812,8.460937 0.23047,0.01563 0.46094,0.02734 0.6875,0.02734 4.55469,0 8.26172,-3.707031 8.26172,-8.265625 0,-7.804688 -1.96875,-12.59375 -3.62109,-15.234375 -1.00782,-1.605469 -2.74219,-2.566406 -4.64063,-2.566406 z m 0,0"
             id="path11894" /></g><g
           clip-path="url(#clip-3)"
           id="g11900"><path
             fill-rule="nonzero"
             fill="#b30c47"
             fill-opacity="1"
             d="m 122.375,24.78125 c -3.05078,-0.25 -5.33203,-2.933594 -5.31641,-5.996094 0.0352,-6.972656 1.70313,-11.246093 3.24219,-13.710937 1.1836,-1.890625 3.9375,-1.894531 5.11719,-0.00391 1.55859,2.484375 3.25,6.820312 3.25,13.925781 0,3.367187 -2.86719,6.0625 -6.29297,5.785156"
             id="path11898" /></g><g
           clip-path="url(#clip-4)"
           id="g11904"><path
             fill-rule="nonzero"
             fill="#1e1323"
             fill-opacity="1"
             d="m 104.32813,-7.984375 c -4.375005,0 -8.074224,3.328125 -8.417974,7.578125 -0.1875,2.300781 0.597657,4.59375 2.15625,6.285156 1.5625,1.695313 3.777344,2.664063 6.078124,2.664063 7.8086,0 12.59375,-1.96875 15.23438,-3.621094 1.60937,-1.007812 2.5664,-2.742187 2.5664,-4.640625 0,-1.902344 -0.96093,-3.640625 -2.57422,-4.648438 -2.60546,-1.628906 -7.32421,-3.582031 -15.0039,-3.617187 z m 0,0"
             id="path11902" /></g><g
           clip-path="url(#clip-5)"
           id="g11908"><path
             fill-rule="nonzero"
             fill="#b30c47"
             fill-opacity="1"
             d="m 98.359375,-0.207031 c 0.25,-3.054688 2.933595,-5.332032 5.996095,-5.316407 6.97656,0.03125 11.25,1.703125 13.71094,3.242188 1.89062,1.183594 1.89453,3.933594 0.008,5.117188 -2.48828,1.554687 -6.82422,3.246093 -13.92969,3.246093 -3.36719,0 -6.062499,-2.863281 -5.785155,-6.289062"
             id="path11906" /></g><g
           clip-path="url(#clip-6)"
           id="g11912"><path
             fill-rule="nonzero"
             fill="#f7bd44"
             fill-opacity="1"
             d="m 122.07031,5.765625 -2.1914,10.140625 c -0.41797,1.929688 0.96093,3.820313 2.93359,3.929688 0.0586,0.0039 0.12109,0.0078 0.18359,0.0078 0.0195,0 0.0391,0 0.0586,0 2.14062,0.04687 3.67187,-2.078125 3.08203,-4.136719 -0.94922,-3.328125 -1.89844,-6.652343 -2.85156,-9.980468 -0.17969,-0.625 -1.07422,-0.597657 -1.21485,0.039062"
             id="path11910" /></g><g
           clip-path="url(#clip-7)"
           id="g11916"><path
             fill-rule="nonzero"
             fill="#f7bd44"
             fill-opacity="1"
             d="m 115.79688,-0.355469 -10.14063,-2.195312 c -1.92969,-0.414063 -3.81641,0.964843 -3.92578,2.933594 -0.004,0.0625 -0.008,0.125 -0.008,0.183593 -0.004,0.023438 -0.004,0.042969 -0.004,0.0625 -0.0469,2.140625 2.08203,3.667969 4.14063,3.082032 3.32421,-0.953125 6.65234,-1.902344 9.97656,-2.851563 0.6289,-0.179687 0.59765,-1.078125 -0.0391,-1.214844"
             id="path11914" /></g><path
           fill-rule="nonzero"
           fill="#f7bd44"
           fill-opacity="1"
           d="m 117.41406,4.246094 -8.51172,5.933594 c -1.61718,1.132812 -1.89062,3.453125 -0.52343,4.875 0.043,0.04687 0.0859,0.08984 0.1289,0.132812 0.0156,0.01172 0.0312,0.02734 0.043,0.04297 1.53906,1.488281 4.10547,0.972656 5.07422,-0.9375 1.57031,-3.082031 3.13672,-6.164063 4.70703,-9.25 0.29297,-0.582031 -0.38281,-1.171875 -0.91797,-0.796875"
           id="path11918" /><g
           clip-path="url(#clip-8)"
           id="g11922"><path
             fill-rule="nonzero"
             fill="#1e1323"
             fill-opacity="1"
             d="m -0.136719,1.195313 c -1.902344,0 -3.636719,0.960937 -4.648437,2.574218 -1.628907,2.609375 -3.578125,7.328125 -3.617188,15.003907 -0.019531,4.394531 3.308594,8.113281 7.578125,8.460937 0.230469,0.01563 0.460938,0.02734 0.6875,0.02734 4.554688,0 8.261719,-3.707031 8.261719,-8.265625 C 8.125,11.191406 6.15625,6.402344 4.503906,3.761719 3.496094,2.15625 1.761719,1.195313 -0.136719,1.195313 Z m 0,0"
             id="path11920" /></g><g
           clip-path="url(#clip-9)"
           id="g11926"><path
             fill-rule="nonzero"
             fill="#b30c47"
             fill-opacity="1"
             d="m -0.625,24.78125 c -3.050781,-0.25 -5.332031,-2.933594 -5.316406,-5.996094 0.035156,-6.972656 1.703125,-11.246093 3.242187,-13.710937 1.183594,-1.890625 3.9375,-1.894531 5.117188,-0.00391 1.558594,2.484375 3.25,6.820312 3.25,13.925781 0,3.367187 -2.867188,6.0625 -6.292969,5.785156"
             id="path11924" /></g><g
           clip-path="url(#clip-10)"
           id="g11930"><path
             fill-rule="nonzero"
             fill="#1e1323"
             fill-opacity="1"
             d="m 18.578125,-7.984375 c -7.804687,0 -12.589844,1.96875 -15.230469,3.621094 -1.609375,1.007812 -2.570312,2.742187 -2.570312,4.640625 0,1.902344 0.964844,3.640625 2.574219,4.648437 2.609375,1.628907 7.328125,3.582032 15.003906,3.617188 4.414062,0 8.113281,-3.328125 8.460937,-7.578125 0.1875,-2.300782 -0.601562,-4.59375 -2.160156,-6.285157 -1.558594,-1.691406 -3.773437,-2.664062 -6.078125,-2.664062"
             id="path11928" /></g><g
           clip-path="url(#clip-11)"
           id="g11934"><path
             fill-rule="nonzero"
             fill="#b30c47"
             fill-opacity="1"
             d="m 24.363281,0.765625 c -0.25,3.054688 -2.933593,5.332031 -5.996093,5.316406 C 11.394531,6.050781 7.121094,4.378906 4.65625,2.839844 2.769531,1.65625 2.761719,-1.09375 4.652344,-2.277344 c 2.484375,-1.554687 6.824219,-3.246094 13.925781,-3.246094 3.367188,0 6.066406,2.863282 5.785156,6.289063"
             id="path11932" /></g><g
           clip-path="url(#clip-12)"
           id="g11938"><path
             fill-rule="nonzero"
             fill="#f7bd44"
             fill-opacity="1"
             d="M -0.929688,5.765625 -3.121094,15.90625 c -0.417969,1.929688 0.960938,3.820313 2.933594,3.929688 0.058594,0.0039 0.1210937,0.0078 0.18359375,0.0078 0.01953125,0 0.03906255,0 0.05859375,0 C 2.195313,19.890625 3.726563,17.765625 3.136719,15.707031 2.1875,12.378906 1.238281,9.054688 0.285156,5.726563 0.105469,5.101563 -0.789063,5.128906 -0.929688,5.765625"
             id="path11936" /></g><g
           clip-path="url(#clip-13)"
           id="g11942"><path
             fill-rule="nonzero"
             fill="#f7bd44"
             fill-opacity="1"
             d="M 5.261719,0.988281 15.402344,3.183594 C 17.328125,3.601563 19.21875,2.21875 19.328125,0.25 c 0.0039,-0.0625 0.0078,-0.121094 0.0078,-0.1835937 0,-0.0195313 0.0039,-0.0429688 0.0039,-0.06250005 C 19.382813,-2.132813 17.257813,-3.664063 15.199219,-3.074219 11.871094,-2.125 8.546875,-1.175781 5.21875,-0.226563 4.59375,-0.046875 4.621094,0.851563 5.261719,0.988281"
             id="path11940" /></g><path
           fill-rule="nonzero"
           fill="#f7bd44"
           fill-opacity="1"
           d="m 3.585938,5.015625 5.9375,8.507813 c 1.128906,1.621093 3.453125,1.894531 4.875,0.527343 0.04297,-0.04297 0.08594,-0.08594 0.132812,-0.128906 0.01172,-0.01563 0.02734,-0.03125 0.03906,-0.04297 C 16.0625,12.339844 15.542969,9.773438 13.636719,8.804688 10.554688,7.234375 7.46875,5.667969 4.386719,4.097656 3.804688,3.804688 3.214844,4.480469 3.585938,5.015625"
           id="path11944" /><g
           clip-path="url(#clip-14)"
           id="g11948"><path
             fill-rule="nonzero"
             fill="#1e1323"
             fill-opacity="1"
             d="m 122.86328,96.296875 c -4.55859,0 -8.26562,3.707035 -8.26562,8.265625 0,7.80859 1.96875,12.59375 3.625,15.23438 1.0039,1.60546 2.73828,2.5664 4.63672,2.5664 1.90234,0 3.64062,-0.96094 4.64843,-2.57422 1.62891,-2.60937 3.58203,-7.32812 3.61719,-15.0039 0.0234,-4.39453 -3.30469,-8.109379 -7.57422,-8.460941 -0.23047,-0.01563 -0.46094,-0.02734 -0.6875,-0.02734 z m 0,0"
             id="path11946" /></g><g
           clip-path="url(#clip-15)"
           id="g11952"><path
             fill-rule="nonzero"
             fill="#b30c47"
             fill-opacity="1"
             d="m 123.34766,98.777344 c 3.05468,0.25 5.33203,2.933596 5.32031,5.996096 -0.0352,6.97265 -1.70703,11.25 -3.24609,13.71094 -1.17969,1.89062 -3.9336,1.89453 -5.11719,0.008 -1.55469,-2.48828 -3.2461,-6.82422 -3.2461,-13.92969 0,-3.36719 2.86719,-6.0625 6.28907,-5.785156"
             id="path11950" /></g><g
           clip-path="url(#clip-16)"
           id="g11956"><path
             fill-rule="nonzero"
             fill="#1e1323"
             fill-opacity="1"
             d="m 104.32813,115.01563 c -4.375005,0 -8.074224,3.32812 -8.417974,7.57812 -0.1875,2.30078 0.597657,4.59375 2.15625,6.28516 1.5625,1.69531 3.777344,2.66406 6.078124,2.66406 7.8086,0 12.59375,-1.96875 15.23438,-3.62109 1.60937,-1.00782 2.5664,-2.74219 2.5664,-4.64063 0,-1.90234 -0.96093,-3.64062 -2.57422,-4.64844 -2.60546,-1.6289 -7.32421,-3.58203 -15.0039,-3.61718 z m 0,0"
             id="path11954" /></g><g
           clip-path="url(#clip-17)"
           id="g11960"><path
             fill-rule="nonzero"
             fill="#b30c47"
             fill-opacity="1"
             d="m 98.359375,122.79297 c 0.25,-3.05469 2.933595,-5.33203 5.996095,-5.31641 6.97656,0.0312 11.25,1.70313 13.71094,3.24219 1.89062,1.18359 1.89453,3.93359 0.008,5.11719 -2.48828,1.55469 -6.82422,3.24609 -13.92969,3.24609 -3.36719,0 -6.062499,-2.86328 -5.785155,-6.28906"
             id="path11958" /></g><g
           clip-path="url(#clip-18)"
           id="g11964"><path
             fill-rule="nonzero"
             fill="#f7bd44"
             fill-opacity="1"
             d="m 123.41797,116.30469 2.19141,-10.14063 c 0.41796,-1.92968 -0.96094,-3.8164 -2.9336,-3.92968 -0.0586,-0.004 -0.12109,-0.004 -0.18359,-0.008 -0.0195,0 -0.0391,0 -0.0586,0 -2.14062,-0.0469 -3.66796,2.08203 -3.08203,4.14063 0.94922,3.32422 1.90235,6.65234 2.85157,9.97656 0.17968,0.62891 1.07812,0.59766 1.21484,-0.0391"
             id="path11962" /></g><g
           clip-path="url(#clip-19)"
           id="g11968"><path
             fill-rule="nonzero"
             fill="#f7bd44"
             fill-opacity="1"
             d="m 115.79688,122.64453 -10.14063,-2.19531 c -1.92969,-0.41406 -3.81641,0.96484 -3.92578,2.93359 -0.004,0.0625 -0.008,0.125 -0.008,0.1836 -0.004,0.0234 -0.004,0.043 -0.004,0.0625 -0.0469,2.14062 2.08203,3.66797 4.14063,3.08203 3.32421,-0.95313 6.65234,-1.90235 9.97656,-2.85156 0.6289,-0.17969 0.59765,-1.07813 -0.0391,-1.21485"
             id="path11966" /></g><path
           fill-rule="nonzero"
           fill="#f7bd44"
           fill-opacity="1"
           d="m 118.31641,118.02734 -5.9336,-8.51171 c -1.13281,-1.61719 -3.45312,-1.89063 -4.875,-0.52344 -0.0469,0.043 -0.0898,0.0859 -0.13281,0.1289 -0.0156,0.0156 -0.0273,0.0312 -0.043,0.043 -1.48828,1.53907 -0.97265,4.10547 0.9375,5.07422 3.08203,1.57031 6.16406,3.13672 9.25,4.70703 0.58203,0.29297 1.17188,-0.38281 0.79688,-0.91797"
           id="path11970" /><g
           clip-path="url(#clip-20)"
           id="g11974"><path
             fill-rule="nonzero"
             fill="#1e1323"
             fill-opacity="1"
             d="m -0.136719,96.296875 c -4.558594,0 -8.265625,3.707035 -8.265625,8.265625 0,7.80859 1.96875,12.59375 3.625,15.23438 1.003906,1.60546 2.738281,2.5664 4.636719,2.5664 1.902344,0 3.640625,-0.96094 4.648438,-2.57422 1.628906,-2.60937 3.582031,-7.32812 3.617187,-15.0039 0.023438,-4.39453 -3.304687,-8.109379 -7.574219,-8.460941 -0.230468,-0.01563 -0.4609372,-0.02734 -0.6875,-0.02734 z m 0,0"
             id="path11972" /></g><g
           clip-path="url(#clip-21)"
           id="g11978"><path
             fill-rule="nonzero"
             fill="#b30c47"
             fill-opacity="1"
             d="m 0.347656,98.777344 c 3.054688,0.25 5.332032,2.933596 5.320313,5.996096 -0.035156,6.97265 -1.707031,11.25 -3.246094,13.71094 -1.179687,1.89062 -3.933594,1.89453 -5.117188,0.008 -1.554687,-2.48828 -3.246093,-6.82422 -3.246093,-13.92969 0,-3.36719 2.867187,-6.0625 6.289062,-5.785156"
             id="path11976" /></g><g
           clip-path="url(#clip-22)"
           id="g11982"><path
             fill-rule="nonzero"
             fill="#1e1323"
             fill-opacity="1"
             d="m 18.578125,115.01563 c -7.804687,0 -12.589844,1.96875 -15.230469,3.62109 -1.609375,1.00781 -2.570312,2.74219 -2.570312,4.64062 0,1.90235 0.964844,3.64063 2.574219,4.64844 2.609375,1.62891 7.328125,3.58203 15.003906,3.61719 4.414062,0 8.113281,-3.32813 8.460937,-7.57813 0.1875,-2.30078 -0.601562,-4.59375 -2.160156,-6.28515 -1.558594,-1.69141 -3.773437,-2.66406 -6.078125,-2.66406"
             id="path11980" /></g><g
           clip-path="url(#clip-23)"
           id="g11986"><path
             fill-rule="nonzero"
             fill="#b30c47"
             fill-opacity="1"
             d="m 24.363281,123.76563 c -0.25,3.05468 -2.933593,5.33203 -5.996093,5.3164 -6.972657,-0.0312 -11.246094,-1.70312 -13.710938,-3.24219 -1.886719,-1.18359 -1.894531,-3.93359 -0.00391,-5.11718 2.484375,-1.55469 6.824219,-3.2461 13.925781,-3.2461 3.367188,0 6.066406,2.86328 5.785156,6.28907"
             id="path11984" /></g><g
           clip-path="url(#clip-24)"
           id="g11990"><path
             fill-rule="nonzero"
             fill="#f7bd44"
             fill-opacity="1"
             d="m 0.417969,116.30469 2.191406,-10.14063 c 0.417969,-1.92968 -0.960937,-3.8164 -2.933594,-3.92968 -0.058594,-0.004 -0.121094,-0.004 -0.183594,-0.008 -0.019531,0 -0.039062,0 -0.058593,0 -2.140625,-0.0469 -3.667969,2.08203 -3.082032,4.14063 0.949219,3.32422 1.902344,6.65234 2.851563,9.97656 0.179687,0.62891 1.078125,0.59766 1.214844,-0.0391"
             id="path11988" /></g><g
           clip-path="url(#clip-25)"
           id="g11994"><path
             fill-rule="nonzero"
             fill="#f7bd44"
             fill-opacity="1"
             d="m 5.261719,123.98828 10.140625,2.19531 c 1.925781,0.41797 3.816406,-0.96484 3.925781,-2.93359 0.0039,-0.0625 0.0078,-0.12109 0.0078,-0.18359 0,-0.0195 0.0039,-0.043 0.0039,-0.0625 0.04297,-2.13672 -2.082031,-3.66797 -4.140625,-3.07813 -3.328125,0.94922 -6.652344,1.89844 -9.980469,2.84766 -0.625,0.17969 -0.597656,1.07812 0.042969,1.21484"
             id="path11992" /></g><path
           fill-rule="nonzero"
           fill="#f7bd44"
           fill-opacity="1"
           d="m 4.867188,119.14844 8.507812,-5.9375 c 1.621094,-1.12891 1.894531,-3.45313 0.527344,-4.875 -0.04297,-0.043 -0.08594,-0.0859 -0.132813,-0.12891 -0.01172,-0.0156 -0.02734,-0.0273 -0.04297,-0.043 -1.535157,-1.48828 -4.101563,-0.97265 -5.074219,0.9336 -1.566406,3.08593 -3.136719,6.16797 -4.703125,9.2539 -0.296875,0.57813 0.382812,1.16797 0.917969,0.79688"
           id="path11996" /></g></pattern><clipPath
       id="clip-26"><rect
         x="0"
         y="0"
         width="123"
         height="123"
         id="rect4674" /></clipPath><clipPath
       id="clip-2"><path
         clip-rule="nonzero"
         d="m 114,1 h 9 v 27 h -9 z m 0,0"
         id="path4602" /></clipPath><clipPath
       id="clip-3"><path
         clip-rule="nonzero"
         d="m 117,3 h 6 v 22 h -6 z m 0,0"
         id="path4605" /></clipPath><clipPath
       id="clip-4"><path
         clip-rule="nonzero"
         d="m 95,0 h 27 V 9 H 95 Z m 0,0"
         id="path4608" /></clipPath><clipPath
       id="clip-5"><path
         clip-rule="nonzero"
         d="m 98,0 h 22 V 7 H 98 Z m 0,0"
         id="path4611" /></clipPath><clipPath
       id="clip-6"><path
         clip-rule="nonzero"
         d="m 119,5 h 4 v 15 h -4 z m 0,0"
         id="path4614" /></clipPath><clipPath
       id="clip-7"><path
         clip-rule="nonzero"
         d="m 101,0 h 16 v 4 h -16 z m 0,0"
         id="path4617" /></clipPath><clipPath
       id="clip-8"><path
         clip-rule="nonzero"
         d="M 0,1 H 9 V 28 H 0 Z m 0,0"
         id="path4620" /></clipPath><clipPath
       id="clip-9"><path
         clip-rule="nonzero"
         d="M 0,3 H 6 V 25 H 0 Z m 0,0"
         id="path4623" /></clipPath><clipPath
       id="clip-10"><path
         clip-rule="nonzero"
         d="M 0,0 H 27 V 9 H 0 Z m 0,0"
         id="path4626" /></clipPath><clipPath
       id="clip-11"><path
         clip-rule="nonzero"
         d="M 3,0 H 25 V 7 H 3 Z m 0,0"
         id="path4629" /></clipPath><clipPath
       id="clip-12"><path
         clip-rule="nonzero"
         d="M 0,5 H 4 V 20 H 0 Z m 0,0"
         id="path4632" /></clipPath><clipPath
       id="clip-13"><path
         clip-rule="nonzero"
         d="M 4,0 H 20 V 4 H 4 Z m 0,0"
         id="path4635" /></clipPath><clipPath
       id="clip-14"><path
         clip-rule="nonzero"
         d="m 114,96 h 9 v 27 h -9 z m 0,0"
         id="path4638" /></clipPath><clipPath
       id="clip-15"><path
         clip-rule="nonzero"
         d="m 117,98 h 6 v 22 h -6 z m 0,0"
         id="path4641" /></clipPath><clipPath
       id="clip-16"><path
         clip-rule="nonzero"
         d="m 95,115 h 27 v 8 H 95 Z m 0,0"
         id="path4644" /></clipPath><clipPath
       id="clip-17"><path
         clip-rule="nonzero"
         d="m 98,117 h 22 v 6 H 98 Z m 0,0"
         id="path4647" /></clipPath><clipPath
       id="clip-18"><path
         clip-rule="nonzero"
         d="m 119,102 h 4 v 15 h -4 z m 0,0"
         id="path4650" /></clipPath><clipPath
       id="clip-19"><path
         clip-rule="nonzero"
         d="m 101,120 h 16 v 3 h -16 z m 0,0"
         id="path4653" /></clipPath><clipPath
       id="clip-20"><path
         clip-rule="nonzero"
         d="m 0,96 h 9 v 27 H 0 Z m 0,0"
         id="path4656" /></clipPath><clipPath
       id="clip-21"><path
         clip-rule="nonzero"
         d="m 0,98 h 6 v 22 H 0 Z m 0,0"
         id="path4659" /></clipPath><clipPath
       id="clip-22"><path
         clip-rule="nonzero"
         d="m 0,115 h 27 v 8 H 0 Z m 0,0"
         id="path4662" /></clipPath><clipPath
       id="clip-23"><path
         clip-rule="nonzero"
         d="m 3,117 h 22 v 6 H 3 Z m 0,0"
         id="path4665" /></clipPath><clipPath
       id="clip-24"><path
         clip-rule="nonzero"
         d="m 0,102 h 3 v 15 H 0 Z m 0,0"
         id="path4668" /></clipPath><clipPath
       id="clip-25"><path
         clip-rule="nonzero"
         d="m 4,119 h 16 v 4 H 4 Z m 0,0"
         id="path4671" /></clipPath></defs><path
     fill-rule="nonzero"
     fill="url(#pattern-0)"
     d="M -2.1570724e-5,351.11311 H 199.50962 V -5.135898e-7 H -2.1570724e-5 Z m 0,0"
     id="path4987"
     style="fill:url(#pattern12001);stroke-width:0.352778"
     inkscape:export-filename="pattern.svg"
     inkscape:export-xdpi="96"
     inkscape:export-ydpi="96" /></svg>
